# xmcd
#
# Track frame offsets:
#	182
#	10480
#	24580
#	38457
#	51260
#	62322
#	74407
#	85947
#	94985
#	106910
#	119105
#	129727
#	144997
#	157997
#	168897
#	181075
#
# Disc length: 2578 seconds
#
# Revision: 4
# Processed by: cddbd v1.5.2PL0 Copyright (c) Steve Scherf et al.
# Submitted via: EasyCDDAExtractor 16.0.6.1
#
DISCID=d00a1010
DTITLE=Cari Schauer and Back In Business - A Musical Tribute To Patsy Cline
DYEAR=1995
DGENRE=Country - Denmark
TTITLE0=Walking After Midnight
TTITLE1=Your Cheating Heart
TTITLE2=There He Goes
TTITLE3=Half As Much
TTITLE4=Crazy
TTITLE5=Blue Moon Of Kentucky
TTITLE6=Three Cigarettes In An Ashtray
TTITLE7=Fooling Around
TTITLE8=Just A Closer Walk With Thee
TTITLE9=I Fall To Pieces
TTITLE10=Got A Lot Of Rhythm In My Soul
TTITLE11=Sweet Dreams (Of You)
TTITLE12=Seven Lonely Days
TTITLE13=San Antonio Rose
TTITLE14=She's Got You
TTITLE15=Bill Bailey
EXTD=YEAR: 1993
EXTT0=
EXTT1=
EXTT2=
EXTT3=
EXTT4=
EXTT5=
EXTT6=
EXTT7=
EXTT8=
EXTT9=
EXTT10=
EXTT11=
EXTT12=
EXTT13=
EXTT14=
EXTT15=
PLAYORDER=
